<?xml version="1.0" encoding="UTF-8"?><svg id="Layer_1" xmlns="http://www.w3.org/2000/svg" viewBox="0 0 431.78 420"><defs><style>.cls-1{letter-spacing:0em;}.cls-2{fill:#ec3325;}.cls-2,.cls-3,.cls-4,.cls-5,.cls-6{stroke-width:0px;}.cls-7{letter-spacing:.01em;}.cls-3{fill:#055eaa;}.cls-4{fill:#fff;}.cls-5,.cls-8{fill:#231f20;}.cls-8{font-family:Caraque-RegularMelted, Caraque;font-size:25.15px;}.cls-6{fill:#44abe0;}</style></defs><rect class="cls-6" width="431.78" height="420"/><g id="Arrows"><path class="cls-4" d="M333.81,308.59c-.9,0-1.81-.17-2.68-.53-2.62-1.08-4.32-3.64-4.32-6.47v-28.2h-183.39c-3.87,0-7-3.13-7-7v-21.87c0-3.87,3.13-7,7-7h180.72v-25.53c0-2.83,1.71-5.38,4.32-6.47.87-.36,1.78-.53,2.68-.53,1.82,0,3.61.71,4.95,2.05l46.13,46.13c2.73,2.73,2.73,7.17,0,9.9l-43.46,43.46c-1.34,1.34-3.13,2.05-4.95,2.05Z"/><path class="cls-5" d="M331.14,211.99l46.13,46.13-43.46,43.46v-35.2h-190.39v-21.87h187.72v-32.53M331.14,197.99c-1.8,0-3.62.35-5.35,1.07-5.23,2.17-8.64,7.27-8.64,12.93v18.53h-173.72c-7.73,0-14,6.27-14,14v21.87c0,7.73,6.27,14,14,14h176.39v21.2c0,5.66,3.41,10.77,8.64,12.93,1.73.72,3.55,1.07,5.35,1.07,3.64,0,7.22-1.42,9.9-4.1l43.46-43.46c5.47-5.47,5.47-14.33,0-19.8l-46.13-46.13c-2.68-2.68-6.26-4.1-9.9-4.1h0Z"/><path class="cls-4" d="M109.02,370.25c-1.82,0-3.61-.71-4.95-2.05l-43.46-43.46c-1.31-1.31-2.05-3.09-2.05-4.95s.74-3.64,2.05-4.95l46.13-46.13c1.34-1.34,3.13-2.05,4.95-2.05.9,0,1.81.17,2.68.53,2.62,1.08,4.32,3.64,4.32,6.47v25.53h180.72c3.87,0,7,3.13,7,7v21.87c0,3.87-3.13,7-7,7H116.02v28.2c0,2.83-1.71,5.38-4.32,6.47-.87.36-1.78.53-2.68.53Z"/><path class="cls-5" d="M111.69,273.66v32.53h187.72v21.87H109.02v35.2l-43.46-43.46,46.13-46.13M111.69,259.66c-3.64,0-7.22,1.42-9.9,4.1l-46.13,46.13c-5.47,5.47-5.47,14.33,0,19.8l43.46,43.46c2.68,2.68,6.26,4.1,9.9,4.1,1.8,0,3.62-.35,5.35-1.07,5.23-2.17,8.64-7.27,8.64-12.93v-21.2h176.39c7.73,0,14-6.27,14-14v-21.87c0-7.73-6.27-14-14-14H125.69v-18.53c0-5.66-3.41-10.77-8.64-12.93-1.73-.72-3.55-1.07-5.35-1.07h0Z"/><text class="cls-8" transform="translate(227.26 264.32)"><tspan x="0" y="0">PIN</tspan></text><text class="cls-8" transform="translate(170.91 325.98)"><tspan x="0" y="0">T</tspan><tspan class="cls-7" x="11.76" y="0">R</tspan><tspan class="cls-1" x="25.08" y="0">ADER</tspan></text></g><g id="TSA_Logo"><rect class="cls-3" x="83.59" y="62.72" width="268.64" height="112.92" rx="7" ry="7"/><path class="cls-2" d="M345.23,69.72v98.92H90.59v-98.92h254.64M345.23,55.72H90.59c-7.73,0-14,6.27-14,14v98.92c0,7.73,6.27,14,14,14h254.64c7.73,0,14-6.27,14-14v-98.92c0-7.73-6.27-14-14-14h0Z"/><path class="cls-4" d="M327.08,154.43c-.11-1.13-.65-2.11-1.15-3.1-7.63-14.92-15.26-29.84-22.9-44.76-3.3-6.45-6.62-12.9-9.91-19.36-1.58-3.1-3.96-5.1-7.49-5.52-1.19-.14-2.38-.22-3.58-.22-27.31-.01-54.63,0-81.94,0s-56.17,0-84.25-.03c-1.08,0-1.55.35-1.91,1.33-1.57,4.28-3.21,8.54-4.85,12.79-.9,2.33-.27,3.26,2.26,3.26,6.15,0,12.31-.01,18.46,0,2.92.01,4.71,1.61,5.13,4.5.32,2.18-.13,4.24-.9,6.26-5.87,15.32-11.72,30.65-17.61,45.97-.4,1.03-.38,1.35.87,1.34,8.42-.05,16.84-.03,25.26-.03,3.38,0,4.23-.58,5.43-3.72,3.25-8.48,6.47-16.96,9.75-25.43,2.71-7,5.21-14.07,8.17-20.97,2.32-5.4,6.46-7.97,12.38-7.95,28.34.04,56.68.06,85.02-.03,3.55-.01,5.88,1.3,7.56,4.36,5.24,9.53,10.59,19,15.89,28.5,1.37,2.45.38,4.07-2.43,4.07-5.26,0-10.52.02-15.77-.02-.88,0-1.32.21-1.65,1.1-2.2,5.86-4.49,11.7-6.73,17.55-.77,2.01-.41,2.5,1.78,2.54h.38c20.3,0,40.61,0,60.91,0,.76,0,1.54-.04,2.29-.21,1.25-.27,1.67-.96,1.54-2.24Z"/><path class="cls-4" d="M271.45,112.38c-1.51-2.53-2.99-5.07-4.47-7.61-.83-1.43-2.1-2.08-3.72-2.08-6.67,0-13.33,0-20,0-.39,0-.74-.02-.92.47-1.04,2.84-2.39,5.57-3.12,8.52-.37,1.51.12,2.53,1.44,3.37.51.32,1.03.61,1.53.94,4.93,3.3,7.66,8.88,5.45,15.36-2.14,6.25-4.49,12.42-6.71,18.64-.29.81-.74,1.53-1.24,2.23-1.32,1.83-3.08,3.17-4.79,4.67,6.45,0,12.89-.01,19.33.01.64,0,.78-.38.95-.82,5.42-14.12,10.84-28.25,16.27-42.37.18-.46.27-.85-.01-1.33Z"/><path class="cls-4" d="M243.49,130.86c1.51-4.44.45-10.1-5.44-12.84-3.59-1.67-7.2-3.31-10.85-4.86-4.43-1.88-8.88-3.72-13.3-5.63-2.34-1.01-2.7-2-1.77-4.32.05-.12.06-.24.14-.53-10.66,0-21.21,0-31.77-.01-.63,0-.92.24-1.12.78-.85,2.32-1.8,4.61-2.57,6.95-.77,2.36-.06,4.36,1.86,5.94.7.57,1.46,1.03,2.28,1.41,6.45,3.01,12.91,6.02,19.35,9.04,3.63,1.7,7.24,3.43,10.85,5.17,1.74.84,1.93,2.38.5,3.68-.71.64-1.55.81-2.49.81-12.74,0-25.47.03-38.2.03-3.68,0-7.35-.03-11.03-.04-.48,0-.97-.13-1.23.58-2.26,6.03-4.58,12.03-6.82,18.06-.47,1.25.02,1.79,1.45,1.79,23.63,0,47.27.06,70.9-.04,5.31-.02,9.76-2.31,12.05-7.26,2.81-6.07,5.06-12.39,7.21-18.72Z"/></g></svg>